HIERARCHY
ROOT pelvis
{
OFFSET 0 0 0
CHANNELS 6 Xposition Yposition Zposition Xrotation Yrotation Zrotation
JOINT lfemur
{
OFFSET 0 104.741 0
CHANNELS 3 Xrotation Yrotation Zrotation
JOINT ltibia
{
OFFSET 0 0 -417.27
CHANNELS 3 Xrotation Yrotation Zrotation
JOINT lfoot
{
OFFSET 0 0 -429.744
CHANNELS 3 Xrotation Yrotation Zrotation
JOINT ltoes
{
OFFSET 122.101 0 0
CHANNELS 3 Xrotation Yrotation Zrotation
JOINT ltoe_EF
{
OFFSET 52.435 0 0
CHANNELS 3 Xrotation Yrotation Zrotation
End Site
{
OFFSET 52.435 0 0
}
}
}
}
}
}
JOINT rfemur
{
OFFSET 0 -104.741 0
CHANNELS 3 Xrotation Yrotation Zrotation
JOINT rtibia
{
OFFSET 0 0 -417.27
CHANNELS 3 Xrotation Yrotation Zrotation
JOINT rfoot
{
OFFSET 0 0 -420.802
CHANNELS 3 Xrotation Yrotation Zrotation
JOINT rtoes
{
OFFSET 145.971 0 0
CHANNELS 3 Xrotation Yrotation Zrotation
JOINT rtoe_EF
{
OFFSET 20.2604 0 0
CHANNELS 3 Xrotation Yrotation Zrotation
End Site
{
OFFSET 20.2604 0 0
}
}
}
}
}
}
JOINT thorax
{
OFFSET 0 0 192.451
CHANNELS 3 Xrotation Yrotation Zrotation
JOINT lclavicle
{
OFFSET 61.9711 0 353.504
CHANNELS 3 Xrotation Yrotation Zrotation
JOINT lhumerus
{
OFFSET -61.9711 177.235 27.1679
CHANNELS 3 Xrotation Yrotation Zrotation
JOINT lradius
{
OFFSET 0 0 -288.663
CHANNELS 3 Xrotation Yrotation Zrotation
JOINT lhand
{
OFFSET 0 0 -248.805
CHANNELS 3 Xrotation Yrotation Zrotation
End Site
{
OFFSET 0 0 -248.805
}
}
}
}
}
JOINT rclavicle
{
OFFSET 61.9711 0 353.504
CHANNELS 3 Xrotation Yrotation Zrotation
JOINT rhumerus
{
OFFSET -61.9711 -177.235 27.1679
CHANNELS 3 Xrotation Yrotation Zrotation
JOINT rradius
{
OFFSET 0 0 -288.663
CHANNELS 3 Xrotation Yrotation Zrotation
JOINT rhand
{
OFFSET 0 0 -248.805
CHANNELS 3 Xrotation Yrotation Zrotation
End Site
{
OFFSET 0 0 -248.805
}
}
}
}
}
JOINT Neck_Root
{
OFFSET 0 0 348.975
CHANNELS 3 Xrotation Yrotation Zrotation
JOINT head
{
OFFSET 34.2596 -9.05976 100.79
CHANNELS 3 Xrotation Yrotation Zrotation
End Site
{
OFFSET 34.2596 -9.05976 100.79
}
}
}
}
}
MOTION
Frames: 7
Frame Time: 0.00833333
-92.737671 194.509354 952.479553 -1.749762 5.171271 5.347914 0.721390 0.521336 26.913168 0.000000 -4.857406 0.000006 -4.775307 19.657559 -2.900614 -0.000001 -8.085307 -0.000007 0.000000 0.000000 0.000000 0.866330 -1.921963 -23.966756 -0.000000 -5.308896 -0.000003 -2.424970 25.803521 -1.128574 -0.000000 -5.027209 -0.000002 0.000000 0.000000 0.000000 -0.003192 -6.268188 3.748640 -11.356982 0.000000 -0.018868 89.912247 -4.731035 3.406318 0.000042 -79.342944 -0.718440 1.527494 10.906716 0.000002 16.472373 0.000000 -1.506320 -95.450972 -1.727930 -7.569757 0.000013 -85.924221 18.862106 -1.583502 2.809317 -0.000002 0.000000 0.000000 0.000000 -0.406472 0.266032 -5.176876 
-92.771103 194.494202 952.479858 -1.752717 5.172208 5.347142 0.726039 0.516343 26.913663 0.000001 -4.854530 -0.000001 -4.774791 19.654968 -2.900573 -0.000001 -8.094163 0.000002 0.000000 0.000000 0.000000 0.870131 -1.925600 -23.968572 -0.000000 -5.308038 -0.000003 -2.418379 25.797479 -1.125838 0.000001 -5.013347 -0.000002 0.000000 0.000000 0.000000 0.001734 -6.273118 3.750972 -11.357233 -0.000000 -0.018050 89.903919 -4.736933 3.410713 0.000026 -79.337376 -0.716136 1.529446 10.900803 0.000008 16.473914 0.000000 -1.504581 -95.454992 -1.724161 -7.569443 -0.000059 -85.924812 18.865310 -1.581098 2.810114 0.000007 0.000000 0.000000 0.000000 -0.407580 0.259964 -5.175939 
-92.786148 194.484940 952.487122 -1.747632 5.170315 5.350735 0.721922 0.512150 26.912300 0.000000 -4.846052 0.000000 -4.776767 19.651100 -2.902199 -0.000002 -8.077350 0.000003 0.000000 -0.000000 0.000000 0.864620 -1.925512 -23.977054 0.000000 -5.307388 0.000001 -2.413390 25.806913 -1.122990 0.000000 -5.040548 -0.000002 0.000000 0.000000 0.000000 -0.002252 -6.273041 3.756119 -11.358553 0.000000 -0.028298 89.903069 -4.731827 3.408555 -0.000042 -79.343738 -0.718244 1.527795 10.916708 0.000002 16.470885 -0.000000 -1.512795 -95.450697 -1.724747 -7.572545 0.000064 -85.929912 18.867466 -1.568896 2.815650 0.000005 0.000000 0.000000 0.000000 -0.410348 0.250386 -5.185349 
-92.799217 194.477905 952.484802 -1.746785 5.166145 5.349224 0.722329 0.514810 26.905621 0.000000 -4.843800 -0.000000 -4.762753 19.649720 -2.893771 0.000000 -8.071082 -0.000000 0.000000 0.000000 0.000000 0.864882 -1.920496 -23.973603 -0.000000 -5.311845 0.000000 -2.412021 25.807528 -1.122311 -0.000000 -5.053879 -0.000003 0.000000 0.000000 0.000000 -0.001860 -6.272293 3.756219 -11.360009 0.000000 -0.026628 89.905859 -4.732008 3.405260 0.000017 -79.344051 -0.715573 1.536669 10.908526 0.000003 16.467536 -0.000001 -1.508908 -95.446197 -1.723664 -7.571178 -0.000056 -85.931453 18.860301 -1.569258 2.808372 -0.000007 0.000000 0.000000 0.000000 -0.410088 0.244050 -5.190054 
-92.849365 194.476761 952.491699 -1.744260 5.169853 5.348811 0.720632 0.507406 26.905700 0.000000 -4.842357 0.000005 -4.763878 19.664149 -2.892920 0.000001 -8.089067 -0.000005 0.000000 0.000000 0.000000 0.863028 -1.925964 -23.972640 -0.000000 -5.312562 0.000002 -2.425353 25.817593 -1.127959 -0.000000 -5.033611 0.000003 0.000000 0.000000 0.000000 -0.004955 -6.279945 3.756747 -11.359918 0.000000 -0.027449 89.903462 -4.730030 3.406895 0.000033 -79.350585 -0.715577 1.535343 10.916078 0.000018 16.468796 0.000000 -1.504067 -95.444917 -1.717463 -7.570884 -0.000112 -85.936519 18.860868 -1.578472 2.808583 0.000011 0.000000 0.000000 0.000000 -0.406088 0.238963 -5.189205 
-92.883629 194.471222 952.496765 -1.745728 5.164784 5.348425 0.723816 0.507891 26.902909 -0.000000 -4.837165 0.000006 -4.756843 19.656566 -2.889432 0.000000 -8.093289 0.000004 0.000000 0.000000 0.000000 0.865940 -1.922677 -23.967430 -0.000001 -5.313145 -0.000004 -2.427444 25.808201 -1.129458 -0.000000 -5.009279 -0.000001 0.000000 0.000000 0.000000 -0.001794 -6.274455 3.760968 -11.360753 -0.000001 -0.028414 89.901776 -4.732211 3.412032 -0.000023 -79.355678 -0.703159 1.536805 10.910836 -0.000000 16.467789 0.000000 -1.506291 -95.441909 -1.718375 -7.582150 -0.000039 -85.939725 18.863627 -1.568359 2.804424 0.000002 0.000000 0.000000 0.000000 -0.407329 0.224213 -5.197202 
-92.905792 194.456421 952.504395 -1.746149 5.160105 5.350118 0.726271 0.508869 26.904586 -0.000000 -4.832312 -0.000005 -4.762649 19.651195 -2.893547 -0.000001 -8.086005 0.000005 0.000000 0.000000 0.000000 0.866604 -1.921667 -23.972468 -0.000000 -5.309505 0.000001 -2.418778 25.808601 -1.125406 -0.000000 -5.020749 0.000001 0.000000 0.000000 0.000000 0.000099 -6.271447 3.762185 -11.358546 0.000000 -0.030457 89.889662 -4.732494 3.422397 0.000004 -79.360029 -0.721672 1.517342 10.919551 0.000000 16.464260 -0.000000 -1.508887 -95.431477 -1.723320 -7.591547 0.000068 -85.944173 18.875527 -1.562648 2.811830 0.000004 0.000000 0.000000 0.000000 -0.408304 0.217019 -5.199023 
